<?xml version="1.0" standalone="no"?>
<!DOCTYPE svg PUBLIC "-//W3C//DTD SVG 1.1//EN" "http://www.w3.org/Graphics/SVG/1.1/DTD/svg11.dtd" >
<svg xmlns="http://www.w3.org/2000/svg">
<metadata></metadata>
<defs>
<font id="futurademicregular" horiz-adv-x="1163" >
<font-face units-per-em="2048" ascent="1536" descent="-512" />
<missing-glyph horiz-adv-x="477" />
<glyph unicode=" "  horiz-adv-x="477" />
<glyph unicode="&#x09;" horiz-adv-x="477" />
<glyph unicode="&#xa0;" horiz-adv-x="477" />
<glyph unicode="!" horiz-adv-x="516" d="M98 133q0 67 46 113.5t114 46.5t114 -46.5t46 -113.5t-46 -113.5t-114 -46.5t-114 46.5t-46 113.5zM131 416v950h254v-950h-254z" />
<glyph unicode="&#x22;" horiz-adv-x="819" d="M86 1366h279l-48 -549h-184zM455 1366h278l-47 -549h-184z" />
<glyph unicode="#" horiz-adv-x="1228" d="M20 381l35 213h209l33 207h-209l35 213h209l57 352h250l-57 -352h192l57 352h250l-57 -352h209l-35 -213h-209l-33 -207h209l-35 -213h-208l-62 -381h-250l62 381h-193l-61 -381h-250l61 381h-209zM514 594h193l32 207h-192z" />
<glyph unicode="$" d="M98 244l154 157q49 -74 125 -127t178 -53q93 0 150 47t57 133q0 57 -38 99.5t-151 91.5q-9 4 -36.5 15.5t-36.5 16t-33 15t-34.5 16.5t-30 16.5t-31.5 19t-28 20t-29.5 23.5t-26.5 26q-88 94 -88 239q0 20 2.5 42t14.5 62.5t31.5 76t59.5 75t94 66.5q64 33 140 41v197 h127v-197q179 -12 315 -154l-135 -172q-18 24 -42 45.5t-72 43.5t-101 22q-84 0 -131 -43.5t-47 -102.5q0 -19 6 -35.5t13.5 -29t24 -26t27.5 -21.5t35 -19.5t35.5 -16.5t40.5 -16.5t39 -15.5q5 -2 35.5 -15t43.5 -19t41.5 -20.5t46.5 -25.5t41 -27t40 -32q104 -97 104 -254 q0 -160 -97.5 -277t-262.5 -147v-207h-127v203q-180 10 -322 117q-75 57 -121 127z" />
<glyph unicode="%" horiz-adv-x="1585" d="M61 1059q0 142 94 232.5t251 90.5t250.5 -90.5t93.5 -232.5t-93.5 -233t-250.5 -91t-251 91t-94 233zM233 1059q0 -76 49 -126t124 -50t123.5 49.5t48.5 126.5t-48.5 126.5t-123.5 49.5t-124 -50t-49 -126zM332 6l813 1405l108 -61l-813 -1407zM836 303q0 142 93.5 233 t250.5 91t250.5 -91t93.5 -233t-93.5 -232.5t-250.5 -90.5t-250.5 90.5t-93.5 232.5zM1008 303q0 -77 48.5 -126.5t123.5 -49.5t123.5 49.5t48.5 126.5t-48.5 126.5t-123.5 49.5t-123.5 -49.5t-48.5 -126.5z" />
<glyph unicode="&#x26;" horiz-adv-x="1454" d="M106 360q0 214 220 347l106 63q-137 137 -137 287q0 65 24 125t69 108.5t118.5 77.5t165.5 29q170 0 268 -96t98 -230q0 -82 -45.5 -162t-146.5 -141l-58 -35l226 -258q108 106 170 189l155 -154q-78 -97 -147 -166l-31 -31l277 -313h-330l-133 154q-204 -185 -440 -185 q-102 0 -185 33t-135.5 88.5t-80.5 125t-28 144.5zM373 383q0 -77 57 -128.5t143 -51.5q74 0 140.5 37t111.5 82l-258 296q-194 -103 -194 -235zM545 1077q0 -60 57 -129l60 -74l61 44q94 65 94 151q0 56 -34 95.5t-99 39.5q-67 0 -103 -38t-36 -89z" />
<glyph unicode="'" horiz-adv-x="450" d="M86 1366h279l-48 -549h-184z" />
<glyph unicode="(" horiz-adv-x="655" d="M139 610q0 341 72 615q51 200 131 344l199 -109q-68 -142 -103 -293q-25 -110 -43 -269.5t-18 -287.5t18 -287.5t43 -269.5q35 -151 103 -293l-199 -108q-80 144 -131 344q-72 274 -72 614z" />
<glyph unicode=")" horiz-adv-x="655" d="M115 -240q66 138 102 293q26 111 44 270.5t18 286.5t-18 286.5t-44 270.5q-36 155 -102 293l198 109q80 -144 131 -344q72 -274 72 -615q0 -340 -72 -614q-51 -200 -131 -344z" />
<glyph unicode="*" d="M238 1214l57 181l233 -119l-41 258h189l-41 -258l233 121l58 -180l-260 -41l186 -185l-154 -110l-116 235l-117 -237l-154 110l187 187z" />
<glyph unicode="+" horiz-adv-x="1024" d="M68 580v229h319v319h250v-319h319v-229h-319v-320h-250v320h-319z" />
<glyph unicode="," horiz-adv-x="671" d="M8 -268l217 551l230 -27l-289 -543z" />
<glyph unicode="-" horiz-adv-x="696" d="M82 356v230h532v-230h-532z" />
<glyph unicode="." horiz-adv-x="516" d="M98 133q0 67 46 113.5t114 46.5t114 -46.5t46 -113.5t-46 -113.5t-114 -46.5t-114 46.5t-46 113.5z" />
<glyph unicode="/" horiz-adv-x="1126" d="M0 -293l782 1811l181 -82l-783 -1811z" />
<glyph unicode="0" d="M53 684q0 137 29 254t79 200t117 142.5t144.5 88t159.5 28.5q104 0 197.5 -46.5t168 -133.5t118.5 -225.5t44 -309.5q0 -170 -44 -308t-118.5 -225t-168 -133.5t-197.5 -46.5t-198 46.5t-168.5 133.5t-118.5 225.5t-44 309.5zM319 684q0 -103 16 -187t42.5 -138t61.5 -91 t70.5 -53t72.5 -16t72.5 16t70 53t61 91t42.5 138t16 187q0 126 -24.5 223.5t-64 152t-83.5 81t-90 26.5t-90 -26.5t-84 -81t-64.5 -152t-24.5 -223.5z" />
<glyph unicode="1" d="M270 1137v229h463v-1366h-266v1137h-197z" />
<glyph unicode="2" d="M37 0l401 457q198 230 234 284q80 119 80 220q0 91 -58 148.5t-145 57.5q-99 0 -156.5 -66.5t-60.5 -160.5h-275q9 207 142.5 332t337.5 125q115 0 208.5 -37t151.5 -99t89.5 -138.5t31.5 -159.5q0 -61 -17 -121.5t-38 -103.5t-61.5 -97.5t-63.5 -80.5t-68 -75l-235 -256 h493v-229h-991z" />
<glyph unicode="3" d="M49 393h266q12 -87 72 -140.5t156 -53.5q107 0 163 65t56 152q0 40 -12.5 76t-38 67.5t-71 50.5t-105.5 19h-35v192h37q92 0 139 54.5t47 132.5q0 82 -49 131t-131 49q-75 0 -130 -47t-59 -131h-250q18 181 141.5 284t303.5 103q196 0 312 -102.5t116 -274.5 q0 -199 -158 -287q23 -9 43.5 -20.5t53 -39t55.5 -60.5t40 -87t17 -118q0 -204 -138.5 -321.5t-348.5 -117.5q-200 0 -337.5 115.5t-154.5 308.5z" />
<glyph unicode="4" d="M45 242v118l678 1031h240v-936h159v-213h-159v-242h-250v242h-668zM360 455h353v542z" />
<glyph unicode="5" d="M53 143l88 230q57 -71 144 -122.5t202 -51.5q123 0 199 73.5t76 190.5q0 115 -80 194.5t-229 79.5q-146 0 -263 -88h-16l162 717h631v-229h-455l-49 -215q54 8 90 8q207 0 341 -124t134 -339q0 -100 -31 -187t-93.5 -158t-168 -112t-241.5 -41q-263 0 -441 174z" />
<glyph unicode="6" d="M61 440q0 118 46 218.5t126 207.5l416 557l189 -143l-324 -414q79 33 154 33q84 0 160.5 -30t137 -84.5t96.5 -140.5t36 -189q0 -94 -30.5 -178.5t-91 -154.5t-162.5 -111.5t-234 -41.5q-126 0 -226.5 38.5t-163.5 104.5t-96 149.5t-33 178.5zM328 434q0 -108 72 -180 t180 -72t179.5 72t71.5 180t-71.5 180t-179.5 72t-180 -72t-72 -180z" />
<glyph unicode="7" d="M94 1137v229h1053l-832 -1423l-202 139l616 1055h-635z" />
<glyph unicode="8" d="M106 373q0 119 65.5 211.5t178.5 128.5q-86 42 -141 119t-55 184q0 76 27.5 143.5t79 121t135 85t186.5 31.5t186.5 -31.5t135 -85t79 -121t27.5 -143.5q0 -107 -55.5 -184t-141.5 -119q113 -36 178.5 -128.5t65.5 -211.5q0 -173 -129.5 -288.5t-345.5 -115.5t-346 115.5 t-130 288.5zM373 391q0 -93 59.5 -153t149.5 -60t149.5 60t59.5 153t-59.5 153t-149.5 60t-149.5 -60t-59.5 -153zM391 1014q0 -85 53 -138t138 -53t137.5 53t52.5 138t-52.5 137.5t-137.5 52.5t-138 -52.5t-53 -137.5z" />
<glyph unicode="9" d="M66 911q0 94 30.5 178.5t91 154.5t162.5 111.5t234 41.5q126 0 226.5 -38.5t163 -104.5t95.5 -149.5t33 -178.5q0 -118 -46 -218.5t-126 -207.5l-416 -557l-188 143l323 414q-79 -33 -153 -33q-84 0 -160.5 30t-137 84.5t-96.5 140.5t-36 189zM332 932q0 -108 72 -180 t180 -72t180 72t72 180t-72 180t-180 72t-180 -72t-72 -180z" />
<glyph unicode=":" horiz-adv-x="516" d="M98 133q0 67 46 113.5t114 46.5t114 -46.5t46 -113.5t-46 -113.5t-114 -46.5t-114 46.5t-46 113.5zM98 758q0 68 46 114t114 46t114 -46t46 -114t-46 -114t-114 -46t-114 46t-46 114z" />
<glyph unicode=";" horiz-adv-x="671" d="M8 -268l217 551l230 -27l-289 -543zM172 758q0 68 46 114t114 46t114 -46t46 -114t-46 -114t-114 -46t-114 46t-46 114z" />
<glyph unicode="&#x3c;" horiz-adv-x="1024" d="M68 578v213l888 446v-246l-626 -307l626 -307v-246z" />
<glyph unicode="=" horiz-adv-x="1024" d="M68 410v217h888v-217h-888zM68 762v217h888v-217h-888z" />
<glyph unicode="&#x3e;" horiz-adv-x="1024" d="M68 131v246l626 307l-626 307v246l888 -446v-213z" />
<glyph unicode="?" horiz-adv-x="1003" d="M86 1006v12q0 177 119.5 278t296.5 101q185 0 300.5 -104t115.5 -279q0 -146 -90 -252.5t-248 -130.5v-215h-254v401q36 -8 73 -8q69 0 120.5 19t78.5 51t40 65.5t13 69.5q0 70 -42 116t-111 46q-40 0 -69.5 -15.5t-43.5 -34.5t-22.5 -45t-9.5 -39t-1 -24v-12h-266z M293 133q0 67 46.5 113.5t113.5 46.5t113 -46t46 -114t-46 -114t-113 -46t-113.5 46.5t-46.5 113.5z" />
<glyph unicode="@" horiz-adv-x="1503" d="M68 672q0 210 96.5 374.5t262 253.5t368.5 89q124 0 229 -33t180 -90t128 -133t78.5 -163t25.5 -179q0 -103 -29 -194t-77 -152.5t-108.5 -96.5t-123.5 -35q-57 0 -101 30t-57 85q-93 -131 -252 -131q-123 0 -206 84.5t-83 236.5q0 97 32.5 177t85 129.5t114.5 76.5 t125 27q141 0 202 -106l17 86h172l-82 -416q-8 -40 -8 -70q0 -69 53 -69q48 0 94 67q35 48 57.5 117t22.5 139q0 67 -18 131.5t-57 124.5t-95 104.5t-138 71.5t-181 27q-109 0 -202 -34t-157.5 -90t-110.5 -129.5t-67.5 -152.5t-21.5 -159q0 -170 89.5 -310.5t239.5 -195.5 q97 -35 228 -35q195 0 383 68l38 -156q-197 -66 -409 -66q-327 0 -522 181q-108 99 -161.5 236t-53.5 280zM594 627q0 -75 41.5 -115.5t97.5 -40.5q70 0 125 63.5t55 163.5q0 64 -34 108t-99 44q-78 0 -132 -64.5t-54 -158.5z" />
<glyph unicode="A" horiz-adv-x="1376" d="M4 0l592 1395h201l575 -1395h-287l-120 287h-551l-121 -287h-289zM498 504h389l-193 491z" />
<glyph unicode="B" horiz-adv-x="1167" d="M156 0v1366h338q42 0 71 -1.5t79.5 -8.5t97 -26.5t85.5 -49.5q60 -46 93.5 -121t33.5 -162q0 -61 -17.5 -111.5t-46 -82t-48.5 -47.5t-41 -27q104 -16 178 -86q98 -93 98 -256q0 -172 -116 -276q-126 -111 -347 -111h-458zM422 217h115q120 0 182 37q84 50 84 158 q0 109 -101 155q-57 27 -182 27h-98v-377zM422 799h76q20 0 38 1.5t51.5 11.5t57 27t42 53t18.5 85q0 88 -57.5 130t-147.5 42h-78v-350z" />
<glyph unicode="C" horiz-adv-x="1236" d="M90 682q0 174 61 309t158 226q191 180 502 180q182 0 336 -84v-312q-44 50 -95.5 84t-99.5 47.5t-78.5 18t-56.5 4.5q-133 0 -237.5 -67t-159.5 -175t-55 -235q0 -110 40 -200.5t105.5 -147.5t147.5 -88t169 -31q193 0 320 149v-311q-153 -80 -338 -80q-168 0 -286 50 t-214 141q-115 111 -167 239t-52 283z" />
<glyph unicode="D" horiz-adv-x="1372" d="M156 0v1366h356q162 0 282.5 -27.5t225.5 -105.5q125 -94 193.5 -237.5t68.5 -313.5q0 -172 -70 -314.5t-204 -236.5q-111 -79 -225.5 -105t-274.5 -26h-352zM422 229h82q209 0 334 90q81 58 125.5 155t44.5 208q0 109 -44 207t-124 158q-122 90 -336 90h-82v-908z" />
<glyph unicode="E" horiz-adv-x="1015" d="M156 0v1366h757v-229h-491v-306h471v-229h-471v-373h491v-229h-757z" />
<glyph unicode="F" horiz-adv-x="954" d="M156 0v1366h725v-229h-459v-306h430v-229h-430v-602h-266z" />
<glyph unicode="G" horiz-adv-x="1564" d="M90 682q0 209 93 372.5t258 253t374 89.5q80 0 152.5 -14.5t126 -36t102 -53t79.5 -59.5t59 -62.5t41 -54.5t26 -42l-232 -125q-12 21 -26.5 41.5t-46.5 52t-69 54.5t-93.5 40t-120.5 17q-198 0 -323 -138t-125 -339q0 -66 15 -130t49.5 -125.5t85 -108t127 -75 t169.5 -28.5q153 0 260.5 71.5t128.5 219.5h-352v229h627v-35q0 -279 -125 -460q-186 -267 -543 -267q-209 0 -372 89t-254 251.5t-91 372.5z" />
<glyph unicode="H" horiz-adv-x="1421" d="M156 0v1366h266v-528h577v528h267v-1366h-267v608h-577v-608h-266z" />
<glyph unicode="I" horiz-adv-x="577" d="M156 0v1366h266v-1366h-266z" />
<glyph unicode="J" horiz-adv-x="798" d="M-53 96l162 195q51 -74 133 -74q75 0 104 47q15 22 22.5 64.5t8 68t0.5 88.5v881h266v-922q0 -59 -4 -104t-18.5 -107t-49 -114t-88.5 -88q-94 -62 -223 -62q-181 0 -313 127z" />
<glyph unicode="K" horiz-adv-x="1302" d="M156 0v1366h266v-578l502 578h336l-578 -631l608 -735h-352l-485 612l-31 -30v-582h-266z" />
<glyph unicode="L" horiz-adv-x="872" d="M156 0v1366h266v-1137h422v-229h-688z" />
<glyph unicode="M" horiz-adv-x="1781" d="M86 0l254 1391h184l371 -893l387 893h184l230 -1391h-271l-122 842l-375 -860h-74l-358 860l-140 -842h-270z" />
<glyph unicode="N" horiz-adv-x="1593" d="M156 0v1397h184l831 -951v920h267v-1393h-185l-831 951v-924h-266z" />
<glyph unicode="O" horiz-adv-x="1638" d="M90 682q0 206 92 369t258.5 254.5t378.5 91.5t378.5 -91.5t258.5 -254.5t92 -369t-92 -368.5t-258.5 -253.5t-378.5 -91t-378.5 91t-258.5 253.5t-92 368.5zM365 682q0 -207 127 -339t327 -132t327.5 132t127.5 339t-128 340t-327 133t-326.5 -133t-127.5 -340z" />
<glyph unicode="P" horiz-adv-x="1093" d="M156 0v1366h397q126 0 208 -21t152 -83q140 -124 140 -330q0 -27 -3.5 -57t-13.5 -75t-35 -91t-61 -82q-121 -121 -346 -121h-172v-506h-266zM422 735h108q36 0 57.5 1.5t56.5 11.5t61 30q73 58 73 160q0 99 -76 156q-61 43 -188 43h-92v-402z" />
<glyph unicode="Q" horiz-adv-x="1638" d="M90 682q0 206 92 369t258.5 254.5t378.5 91.5t378.5 -91.5t258.5 -254.5t92 -369q0 -286 -180 -485l221 -224l-268 -26l-113 121q-89 -53 -181 -76t-208 -23q-212 0 -378.5 90.5t-258.5 253t-92 369.5zM365 682q0 -207 128 -339t332 -132q115 0 203 45l-278 270l276 23 l158 -162q90 119 90 295q0 207 -128 340t-327 133t-326.5 -133t-127.5 -340z" />
<glyph unicode="R" horiz-adv-x="1175" d="M156 0v1366h395q227 0 348 -102q135 -114 135 -308q0 -101 -41 -184.5t-119 -136.5q-62 -44 -149 -60l426 -575h-332l-364 549h-33v-549h-266zM422 737h76q24 0 47.5 2t65.5 13.5t72 31.5t53.5 61.5t23.5 98.5q0 48 -15 85.5t-42 58.5t-53 34.5t-60 18.5t-51 6.5t-37 1.5 h-80v-412z" />
<glyph unicode="S" horiz-adv-x="1093" d="M70 227l174 166q46 -93 125.5 -137.5t160.5 -44.5q92 0 151.5 51.5t59.5 136.5q0 73 -53 123q-24 22 -64 42.5t-65 29.5t-82 29q-152 53 -227 118q-109 94 -109 254q0 78 26.5 148t78.5 128t138.5 92t195.5 34q231 0 387 -160l-140 -182q-88 116 -223 116 q-51 0 -89.5 -14.5t-59 -39t-30 -51t-9.5 -54.5q0 -54 43 -92q23 -21 55.5 -35.5t108.5 -42.5q100 -35 164.5 -65t111.5 -72q117 -105 117 -287q0 -200 -131.5 -324.5t-343.5 -124.5q-89 0 -168 24.5t-136.5 66.5t-96 81.5t-70.5 85.5z" />
<glyph unicode="T" horiz-adv-x="905" d="M12 1137v229h881v-229h-307v-1137h-267v1137h-307z" />
<glyph unicode="U" horiz-adv-x="1409" d="M156 530v836h266v-858q0 -130 65 -203q78 -94 218 -94q139 0 217 94q65 73 65 203v858h266v-836q0 -235 -102 -364q-72 -95 -191.5 -146t-254.5 -51t-255 51t-192 146q-102 129 -102 364z" />
<glyph unicode="V" horiz-adv-x="1318" d="M4 1366h291l364 -917l365 917h291l-586 -1397h-143z" />
<glyph unicode="W" horiz-adv-x="2002" d="M4 1366h283l305 -930l334 942h147l316 -942l327 930h283l-514 -1397h-189l-303 897l-317 -897h-189z" />
<glyph unicode="X" horiz-adv-x="1310" d="M16 0l484 721l-408 645h320l239 -424l252 424h320l-420 -645l467 -721h-320l-299 500l-315 -500h-320z" />
<glyph unicode="Y" horiz-adv-x="1208" d="M-4 1366h315l293 -475l293 475h315l-481 -741v-625h-266v625z" />
<glyph unicode="Z" horiz-adv-x="1196" d="M45 0l664 1137h-559v229h1001l-664 -1137h631v-229h-1073z" />
<glyph unicode="[" horiz-adv-x="716" d="M184 -328v1862h430v-213h-192v-1436h192v-213h-430z" />
<glyph unicode="\" horiz-adv-x="1126" d="M164 1436l180 82l782 -1811l-180 -82z" />
<glyph unicode="]" horiz-adv-x="716" d="M102 -115h193v1436h-193v213h430v-1862h-430v213z" />
<glyph unicode="^" horiz-adv-x="1024" d="M16 694l332 678h328l332 -678h-260l-236 494l-236 -494h-260z" />
<glyph unicode="_" horiz-adv-x="1024" d="M0 -111h1024v-213h-1024v213z" />
<glyph unicode="`" horiz-adv-x="1024" d="M193 1319l180 115l241 -308l-114 -82z" />
<glyph unicode="a" horiz-adv-x="1167" d="M74 444q0 131 54.5 238t156 170t229.5 63q193 0 285 -143v115h250v-887h-250v115q-100 -144 -273 -144q-200 0 -326 137t-126 336zM332 444q0 -107 70 -179t176 -72t175.5 72t69.5 179t-69.5 178.5t-175.5 71.5q-107 0 -176.5 -71.5t-69.5 -178.5z" />
<glyph unicode="b" horiz-adv-x="1167" d="M119 0v1534h250v-762q102 143 288 143q194 0 315.5 -133.5t121.5 -337.5t-124 -338.5t-319 -134.5q-178 0 -282 144v-115h-250zM344 444q0 -107 70 -179t176 -72t176 72t70 179t-69.5 178.5t-176.5 71.5t-176.5 -71.5t-69.5 -178.5z" />
<glyph unicode="c" horiz-adv-x="856" d="M74 440q0 113 41 205.5t112 155.5q129 114 320 114q130 0 239 -53v-246q-84 78 -204 78q-118 0 -184 -73t-66 -177q0 -109 73 -180t185 -71q110 0 196 77v-243q-110 -56 -229 -56q-101 0 -190.5 35t-151.5 94q-141 131 -141 340z" />
<glyph unicode="d" horiz-adv-x="1167" d="M74 444q0 131 54.5 238t156 170t229.5 63q193 0 285 -143v762h250v-1534h-250v115q-100 -144 -273 -144q-200 0 -326 137t-126 336zM332 444q0 -107 70 -179t176 -72t175.5 72t69.5 179t-69.5 178.5t-175.5 71.5q-107 0 -176.5 -71.5t-69.5 -178.5z" />
<glyph unicode="e" horiz-adv-x="1069" d="M74 442q0 214 135 349q126 124 334 124q226 0 346 -145q106 -127 106 -348v-21h-663q0 -91 43 -149q61 -84 178 -84q140 0 207 117l229 -37q-12 -29 -26 -55.5t-50 -70t-80.5 -74t-118.5 -54t-161 -23.5q-209 0 -340 125q-139 130 -139 346zM340 561h420q-14 86 -75 132 t-136 46q-74 0 -134.5 -46.5t-74.5 -131.5z" />
<glyph unicode="f" horiz-adv-x="598" d="M29 674v213h94v284q0 40 3 72.5t13.5 79t36 88.5t64.5 74q87 74 219 74q76 0 143 -31v-228q-48 37 -113 37q-60 0 -90 -45q-26 -43 -26 -153v-252h229v-213h-229v-674h-250v674h-94z" />
<glyph unicode="g" d="M74 444q0 126 52 232.5t154.5 172.5t235.5 66q185 0 279 -143v115h249v-854q0 -59 -1.5 -89t-10 -82.5t-30.5 -97t-58 -86.5q-66 -75 -161.5 -115t-209.5 -40q-190 0 -322 101t-155 272h271q13 -75 69 -117.5t139 -42.5q61 0 105 22t65.5 50.5t33.5 68.5t14 62.5t2 46.5 v133q-97 -148 -273 -148q-198 0 -323 137t-125 336zM332 444q0 -107 70 -179t176 -72t175.5 72t69.5 179t-69.5 178.5t-175.5 71.5q-107 0 -176.5 -71.5t-69.5 -178.5z" />
<glyph unicode="h" horiz-adv-x="1093" d="M119 0v1534h250v-762q102 143 274 143q71 0 142.5 -25t119.5 -83q70 -87 70 -250v-557h-250v483q0 125 -47 174q-43 45 -117 45q-101 0 -153 -77q-39 -60 -39 -172v-453h-250z" />
<glyph unicode="i" horiz-adv-x="487" d="M94 1262q0 61 44 105t106 44t105.5 -43.5t43.5 -105.5t-44 -106t-105 -44q-62 0 -106 44t-44 106zM119 0v887h250v-887h-250z" />
<glyph unicode="j" horiz-adv-x="487" d="M94 1262q0 61 44 105t106 44t105.5 -43.5t43.5 -105.5t-44 -106t-105 -44q-62 0 -106 44t-44 106zM119 -475v1362h250v-1362h-250z" />
<glyph unicode="k" horiz-adv-x="1048" d="M119 0v1534h250v-971l331 324h324l-416 -389l449 -498h-332l-330 379l-26 -25v-354h-250z" />
<glyph unicode="l" horiz-adv-x="487" d="M119 0v1534h250v-1534h-250z" />
<glyph unicode="m" horiz-adv-x="1617" d="M119 0v887h250v-101q102 129 264 129q53 0 98.5 -13t74 -30.5t52.5 -42t35 -41t20 -34.5q41 66 111 113.5t174 47.5q156 0 240 -108q39 -52 50 -107.5t11 -142.5v-557h-250v483q0 122 -41 174q-36 45 -102 45q-93 0 -137 -77q-35 -56 -35 -172v-453h-250v483 q0 122 -41 174q-36 45 -102 45q-94 0 -138 -77q-34 -55 -34 -172v-453h-250z" />
<glyph unicode="n" horiz-adv-x="1093" d="M119 0v887h250v-115q102 143 274 143q71 0 142.5 -25t119.5 -83q70 -87 70 -250v-557h-250v483q0 125 -47 174q-43 45 -117 45q-101 0 -153 -77q-39 -60 -39 -172v-453h-250z" />
<glyph unicode="o" d="M74 442q0 105 40.5 196t108.5 153q135 124 359 124q223 0 358 -124q69 -62 109.5 -153t40.5 -196q0 -104 -40.5 -194t-109.5 -152q-136 -125 -358 -125q-223 0 -359 125q-68 62 -108.5 152t-40.5 194zM332 442q0 -103 71.5 -176t178.5 -73t178 73t71 176 q0 105 -71.5 178.5t-177.5 73.5t-178 -73.5t-72 -178.5z" />
<glyph unicode="p" horiz-adv-x="1167" d="M119 -475v1362h250v-115q102 143 288 143q194 0 315.5 -133.5t121.5 -337.5t-124 -338.5t-319 -134.5q-178 0 -282 144v-590h-250zM344 444q0 -107 70 -179t176 -72t176 72t70 179t-69.5 178.5t-176.5 71.5t-176.5 -71.5t-69.5 -178.5z" />
<glyph unicode="q" horiz-adv-x="1167" d="M74 444q0 131 54.5 238t156 170t229.5 63q193 0 285 -143v115h250v-1362h-250v590q-100 -144 -273 -144q-200 0 -326 137t-126 336zM332 444q0 -107 70 -179t176 -72t175.5 72t69.5 179t-69.5 178.5t-175.5 71.5q-107 0 -176.5 -71.5t-69.5 -178.5z" />
<glyph unicode="r" horiz-adv-x="737" d="M119 0v887h250v-133q18 35 42 63.5t39.5 40.5t28.5 19q59 38 148 38q48 0 106 -20l-33 -233q-46 32 -116 32q-109 0 -166 -71q-22 -27 -33.5 -65t-13.5 -65t-2 -67v-426h-250z" />
<glyph unicode="s" horiz-adv-x="827" d="M61 119l132 151q39 -45 91 -73.5t105 -28.5q54 0 88.5 25.5t34.5 70.5q0 62 -78 90l-57 21q-42 15 -67.5 26t-62 32.5t-61.5 47.5q-67 70 -67 170q0 61 25.5 114t66.5 87q80 63 231 63q159 0 283 -94l-123 -145q-63 59 -145 59q-44 0 -70.5 -19.5t-26.5 -51.5 q0 -54 80 -80l60 -19q51 -17 81.5 -28.5t75.5 -39t68 -59.5q45 -62 45 -147q0 -135 -98 -225q-104 -95 -266 -95q-207 0 -345 148z" />
<glyph unicode="t" horiz-adv-x="552" d="M20 674v213h99v303h250v-303h172v-213h-172v-674h-250v674h-99z" />
<glyph unicode="u" horiz-adv-x="1097" d="M119 344v543h250v-502q0 -107 53 -156q52 -45 127 -45t127 45q53 49 53 156v502h250v-543q0 -78 -21.5 -146t-87.5 -126q-58 -51 -145 -76t-176 -25t-176.5 25t-145.5 76q-66 58 -87 126t-21 146z" />
<glyph unicode="v" horiz-adv-x="1032" d="M4 887h279l233 -500l234 500h278l-455 -905h-114z" />
<glyph unicode="w" horiz-adv-x="1622" d="M4 887h279l233 -512l242 536h106l242 -536l233 512h279l-455 -905h-114l-238 540l-238 -540h-114z" />
<glyph unicode="x" horiz-adv-x="1159" d="M4 0l422 483l-340 404h315l181 -230l184 230h315l-346 -404l420 -483h-319l-254 309l-258 -309h-320z" />
<glyph unicode="y" horiz-adv-x="1101" d="M4 887h291l274 -504l246 504h283l-715 -1362h-283l326 608z" />
<glyph unicode="z" horiz-adv-x="991" d="M25 0l503 674h-426v213h865l-504 -674h469v-213h-907z" />
<glyph unicode="{" horiz-adv-x="1024" d="M254 385v213q51 7 78 37q35 41 35 123v332q0 40 1.5 63.5t8.5 58t24 62t45 49.5q70 59 242 59q65 0 131 -4v-213h-37h-20h-24t-22.5 -0.5t-25 -3t-21.5 -5.5t-21.5 -8.5t-16.5 -12.5q-27 -27 -27 -95v-292q0 -104 -25 -156.5t-98 -99.5q73 -47 98 -99.5t25 -156.5v-293 q0 -68 27 -95q7 -7 16.5 -12.5t21.5 -8.5t21.5 -5.5t25 -3t22.5 -0.5h24h20h37v-213q-66 -4 -131 -4q-172 0 -242 59q-28 22 -45 49.5t-24 62t-8.5 58.5t-1.5 64v331q0 82 -35 123q-27 30 -78 37z" />
<glyph unicode="|" horiz-adv-x="1024" d="M387 -512v2048h250v-2048h-250z" />
<glyph unicode="}" horiz-adv-x="1024" d="M205 -182h37h20h24t22.5 0.5t25 3t21.5 5.5t21.5 8.5t16.5 12.5q27 27 27 95v293q0 104 25 156.5t98 99.5q-73 47 -98 99.5t-25 156.5v292q0 68 -27 95q-7 7 -16.5 12.5t-21.5 8.5t-21.5 5.5t-25 3t-22.5 0.5h-24h-20h-37v213q66 4 131 4q172 0 242 -59q28 -22 45 -49.5 t24 -62t8.5 -58t1.5 -63.5v-332q0 -82 35 -123q27 -30 78 -37v-213q-51 -7 -78 -37q-35 -41 -35 -123v-331q0 -40 -1.5 -64t-8.5 -58.5t-24 -62t-45 -49.5q-70 -59 -242 -59q-65 0 -131 4v213z" />
<glyph unicode="~" horiz-adv-x="1368" d="M184 1235q24 68 65.5 138t92.5 106q58 43 145 43q43 0 89 -12t133 -44q12 -4 39.5 -14.5t40.5 -15t33.5 -10.5t36 -8.5t30.5 -2.5q51 0 86 26.5t65 84.5l144 -82q-75 -180 -189 -238q-59 -30 -121 -30q-12 0 -23.5 0.5t-20.5 1.5t-21 3.5t-19 3.5t-20.5 5.5t-19 6 t-21.5 7.5t-21.5 8t-24.5 9t-26 10q-80 30 -116 40.5t-68 10.5q-31 0 -58.5 -15.5t-45 -39t-27 -41.5t-14.5 -33z" />
<glyph unicode="&#xa4;" horiz-adv-x="1368" d="M49 270l211 211q-92 115 -92 285t92 285l-211 211l135 135l211 -211q120 92 289 92t289 -92l211 211l135 -135l-211 -211q92 -115 92 -285t-92 -285l211 -211l-135 -135l-211 211q-120 -92 -289 -92t-289 92l-211 -211zM397 766q0 -126 80.5 -208.5t206.5 -82.5 t206.5 82.5t80.5 208.5t-80.5 208.5t-206.5 82.5t-206.5 -82.5t-80.5 -208.5z" />
<glyph unicode="&#xa6;" horiz-adv-x="1024" d="M387 225h250v-737h-250v737zM387 799v737h250v-737h-250z" />
<glyph unicode="&#xa7;" d="M150 604q0 54 12.5 105t39 98t73.5 82.5t110 50.5q-87 36 -134.5 110.5t-47.5 170.5q0 150 107.5 239.5t283.5 89.5q115 0 200 -42.5t130 -125.5q44 -81 47 -200h-246q7 72 -33 118t-106 46q-61 0 -101.5 -34t-40.5 -100q0 -40 14 -63.5t58.5 -50t142.5 -68.5 q61 -26 95 -41.5t85 -47t83 -64.5q92 -97 92 -244q0 -12 -0.5 -24t-5.5 -41t-13.5 -54.5t-26.5 -59.5t-42.5 -62.5t-63.5 -57.5t-88 -49q18 -7 37 -17.5t47.5 -34t50 -52t37 -74t15.5 -97.5q0 -69 -25 -132t-72.5 -114t-123.5 -81.5t-169 -30.5q-172 0 -282 105.5 t-109 283.5h250q0 -74 41.5 -125t108.5 -51q60 0 99.5 42t39.5 105q0 41 -15 71.5t-48 53t-63.5 36t-82.5 32.5q-10 3 -38.5 13t-40.5 15t-36.5 14.5t-39 18t-35 20.5t-37.5 26.5t-33 31.5q-100 108 -100 260zM412 612q0 -82 52 -130t118 -48t118 48t52 130t-52 130.5 t-118 48.5t-118 -48.5t-52 -130.5z" />
<glyph unicode="&#xa9;" horiz-adv-x="1556" d="M68 682q0 151 55.5 284t150.5 227.5t226 149t278 54.5q196 0 359 -92.5t257.5 -257t94.5 -365.5t-95 -365t-257.5 -256t-358.5 -92q-195 0 -358 92t-257.5 256t-94.5 365zM211 682q0 -161 75 -295.5t205.5 -212.5t286.5 -78t286.5 78t206 212.5t75.5 295.5t-75.5 296 t-206 213.5t-286.5 78.5t-286.5 -78.5t-205.5 -213.5t-75 -296zM373 678q0 79 29 154.5t83.5 138t142 101t193.5 38.5q132 0 226 -53v-223l-23 22q-86 86 -195 86q-114 0 -187 -75t-73 -187q0 -114 73.5 -186t191.5 -72q106 0 190 84l23 22v-223q-99 -51 -220 -51 q-194 0 -324 121.5t-130 302.5z" />
<glyph unicode="&#xab;" horiz-adv-x="1052" d="M82 449l324 438l143 -103l-250 -335l250 -336l-143 -103zM483 449l324 438l143 -103l-250 -335l250 -336l-143 -103z" />
<glyph unicode="&#xac;" horiz-adv-x="1024" d="M68 322v229h888v-551h-249v322h-639z" />
<glyph unicode="&#xad;" horiz-adv-x="696" d="M82 356v230h532v-230h-532z" />
<glyph unicode="&#xae;" horiz-adv-x="1556" d="M68 682q0 151 55.5 284t150.5 227.5t226 149t278 54.5q196 0 359 -92.5t257.5 -257t94.5 -365.5t-95 -365t-257.5 -256t-358.5 -92q-195 0 -358 92t-257.5 256t-94.5 365zM211 682q0 -161 75 -295.5t205.5 -212.5t286.5 -78t286.5 78t206 212.5t75.5 295.5t-75.5 296 t-206 213.5t-286.5 78.5t-286.5 -78.5t-205.5 -213.5t-75 -296zM539 352v686h229q121 0 185.5 -63.5t64.5 -149.5q0 -71 -44.5 -124t-117.5 -68l211 -281h-182l-191 254v-254h-155zM694 733h27q129 0 129 86q0 29 -11.5 47.5t-33 25.5t-38 9t-42.5 2h-31v-170z" />
<glyph unicode="&#xb0;" horiz-adv-x="1024" d="M199 1049q0 134 90 220.5t223 86.5t223 -86.5t90 -220.5t-90 -221t-223 -87t-223 87t-90 221zM350 1049q0 -70 45.5 -115t116.5 -45t116.5 45t45.5 115t-45.5 114.5t-116.5 44.5t-116.5 -44.5t-45.5 -114.5z" />
<glyph unicode="&#xb1;" horiz-adv-x="1024" d="M68 106v230h888v-230h-888zM68 727v229h319v320h250v-320h319v-229h-319v-319h-250v319h-319z" />
<glyph unicode="&#xb6;" horiz-adv-x="1339" d="M53 1004q0 42 8.5 83t29 85t60 83.5t95.5 65.5q45 21 97.5 31.5t86 12t94.5 1.5h668v-192h-143v-1364h-213v1364h-177v-1364h-213v845h-26q-162 0 -264.5 96t-102.5 253z" />
<glyph unicode="&#xb7;" horiz-adv-x="409" d="M16 586q0 78 55.5 133t133.5 55t133 -55t55 -133t-55 -133.5t-133 -55.5t-133.5 55.5t-55.5 133.5z" />
<glyph unicode="&#xbb;" horiz-adv-x="1052" d="M102 113l250 336l-250 335l144 103l323 -438l-323 -439zM504 113l250 336l-250 335l143 103l324 -438l-324 -439z" />
<glyph unicode="&#x3bc;" horiz-adv-x="1146" d="M119 -352v1239h250v-428q0 -20 1 -38t5.5 -49t12.5 -56t23.5 -53t37 -47t55 -31.5t74.5 -12.5q200 0 200 295v420h250v-887h-250v123q-25 -66 -79 -109t-128 -43q-69 0 -121 38t-81 97v-458h-250z" />
<glyph unicode="&#x401;" horiz-adv-x="1015" d="M156 0v1366h757v-229h-491v-306h471v-229h-471v-373h491v-229h-757zM156 1661q0 60 43.5 103.5t103.5 43.5t104 -43.5t44 -103.5t-44 -104t-104 -44t-103.5 44t-43.5 104zM614 1661q0 60 44 103.5t104 43.5t103.5 -43.5t43.5 -103.5t-43.5 -104t-103.5 -44t-104 44 t-44 104z" />
<glyph unicode="&#x402;" horiz-adv-x="1392" d="M12 1137v229h1004v-229h-451v-316q154 15 262 15q42 0 75.5 -1.5t88.5 -11t99 -25.5t92.5 -48.5t83.5 -77.5q86 -107 86 -283q0 -188 -113 -300t-293 -112q-142 0 -262 62l70 211q73 -43 153 -43q77 0 123.5 48t46.5 130q0 99 -49 154q-60 67 -211 67q-115 0 -252 -14 v-592h-266v1137h-287z" />
<glyph unicode="&#x403;" horiz-adv-x="892" d="M156 0v1366h725v-229h-459v-1137h-266zM410 1593l286 291l185 -143l-357 -250z" />
<glyph unicode="&#x404;" horiz-adv-x="1251" d="M90 682q0 156 54 298.5t151 236.5q189 180 510 180q194 0 356 -84v-312q-19 21 -44.5 42t-70.5 49t-108.5 45.5t-134.5 17.5q-171 0 -289.5 -101t-148.5 -253h653v-230h-653q31 -171 161 -265.5t291 -94.5q206 0 344 149v-311q-163 -80 -358 -80q-319 0 -510 191 q-32 31 -61.5 70.5t-64.5 104t-56 155t-21 192.5z" />
<glyph unicode="&#x405;" horiz-adv-x="1093" d="M70 227l174 166q46 -93 125.5 -137.5t160.5 -44.5q92 0 151.5 51.5t59.5 136.5q0 73 -53 123q-24 22 -64 42.5t-65 29.5t-82 29q-152 53 -227 118q-109 94 -109 254q0 78 26.5 148t78.5 128t138.5 92t195.5 34q231 0 387 -160l-140 -182q-88 116 -223 116 q-51 0 -89.5 -14.5t-59 -39t-30 -51t-9.5 -54.5q0 -54 43 -92q23 -21 55.5 -35.5t108.5 -42.5q100 -35 164.5 -65t111.5 -72q117 -105 117 -287q0 -200 -131.5 -324.5t-343.5 -124.5q-89 0 -168 24.5t-136.5 66.5t-96 81.5t-70.5 85.5z" />
<glyph unicode="&#x406;" horiz-adv-x="577" d="M156 0v1366h266v-1366h-266z" />
<glyph unicode="&#x407;" horiz-adv-x="577" d="M0 1671q0 51 36 87t87 36t87 -36t36 -87t-36 -87t-87 -36t-87 36t-36 87zM156 0v1366h266v-1366h-266zM332 1671q0 51 36 87t87 36t87 -36t36 -87t-36 -87t-87 -36t-87 36t-36 87z" />
<glyph unicode="&#x408;" horiz-adv-x="798" d="M-53 96l162 195q51 -74 133 -74q75 0 104 47q15 22 22.5 64.5t8 68t0.5 88.5v881h266v-922q0 -59 -4 -104t-18.5 -107t-49 -114t-88.5 -88q-94 -62 -223 -62q-181 0 -313 127z" />
<glyph unicode="&#x409;" horiz-adv-x="1933" d="M20 0v229q40 -12 76 -12q74 0 123 49q25 25 40 57.5t20.5 83t6.5 80t1 97.5v782h930v-535h213q214 0 335 -112q127 -117 127 -305q0 -139 -73 -246q-114 -168 -387 -168h-482v1137h-397v-607v-64t-2.5 -63.5t-7.5 -71.5t-15.5 -65.5t-26 -69.5t-39.5 -59.5t-56 -58.5 q-106 -90 -273 -90q-58 0 -113 12zM1217 229h155q19 0 35 1t49 5.5t57.5 17t50.5 31.5t40 52.5t14 77.5q0 36 -10.5 66.5t-36 59.5t-75.5 45.5t-120 16.5h-159v-373z" />
<glyph unicode="&#x40a;" horiz-adv-x="1982" d="M156 0v1366h266v-528h577v528h267v-535h213q215 0 336 -112q127 -117 127 -305q0 -137 -74 -246q-114 -168 -387 -168h-482v608h-577v-608h-266zM1266 229h155q19 0 35 1t49 5.5t57.5 17t50.5 31.5t40 52.5t14 77.5q0 36 -10.5 66.5t-36 59.5t-75.5 45.5t-120 16.5h-159 v-373z" />
<glyph unicode="&#x40b;" horiz-adv-x="1413" d="M12 1137v229h963v-229h-410v-316q147 15 244 15q249 0 365 -88q57 -42 89 -102.5t40 -110.5t8 -115v-420h-267v373q0 41 -2.5 66.5t-18 61.5t-46.5 60q-58 45 -195 45q-116 0 -217 -14v-592h-266v1137h-287z" />
<glyph unicode="&#x40c;" horiz-adv-x="1302" d="M156 0v1366h266v-578l502 578h336l-578 -631l608 -735h-352l-485 612l-31 -30v-582h-266zM487 1593l287 291l184 -143l-356 -250z" />
<glyph unicode="&#x40e;" horiz-adv-x="1249" d="M4 1366h311l347 -688l292 688h291l-633 -1366h-290l190 381zM266 1729l185 73q15 -40 41.5 -66.5t57.5 -36.5t49.5 -13t35.5 -3t35.5 3t49.5 13t57.5 36.5t41.5 66.5l185 -73q-41 -107 -136 -168.5t-233 -61.5t-233 61.5t-136 168.5z" />
<glyph unicode="&#x40f;" horiz-adv-x="1384" d="M156 0v1366h266v-1137h541v1137h266v-1366h-414v-369h-246v369h-413z" />
<glyph unicode="&#x410;" horiz-adv-x="1376" d="M4 0l592 1395h201l575 -1395h-287l-120 287h-551l-121 -287h-289zM498 504h389l-193 491z" />
<glyph unicode="&#x411;" horiz-adv-x="1167" d="M156 0v1366h790v-229h-524v-314h184q218 0 342 -110q129 -116 129 -303q0 -134 -76 -244q-117 -166 -393 -166h-452zM422 229h127q76 0 129 16.5t78.5 44.5t36 56.5t10.5 61.5q0 36 -11 66t-37 58.5t-77.5 45t-124.5 16.5h-131v-365z" />
<glyph unicode="&#x412;" horiz-adv-x="1167" d="M156 0v1366h338q42 0 71 -1.5t79.5 -8.5t97 -26.5t85.5 -49.5q60 -46 93.5 -121t33.5 -162q0 -61 -17.5 -111.5t-46 -82t-48.5 -47.5t-41 -27q104 -16 178 -86q98 -93 98 -256q0 -172 -116 -276q-126 -111 -347 -111h-458zM422 217h115q120 0 182 37q84 50 84 158 q0 109 -101 155q-57 27 -182 27h-98v-377zM422 799h76q20 0 38 1.5t51.5 11.5t57 27t42 53t18.5 85q0 88 -57.5 130t-147.5 42h-78v-350z" />
<glyph unicode="&#x413;" horiz-adv-x="892" d="M156 0v1366h725v-229h-459v-1137h-266z" />
<glyph unicode="&#x414;" horiz-adv-x="1372" d="M20 229q70 -3 127.5 50t90.5 135q49 123 49 358v594h921v-1137h144v-536h-246v307h-840v-307h-246v536zM391 229h551v908h-397v-365q0 -257 -47 -381q-36 -95 -107 -162z" />
<glyph unicode="&#x415;" horiz-adv-x="1015" d="M156 0v1366h757v-229h-491v-306h471v-229h-471v-373h491v-229h-757z" />
<glyph unicode="&#x416;" horiz-adv-x="1830" d="M12 0l541 735l-522 631h303l454 -578v578h254v-578l455 578h303l-522 -631l541 -735h-308l-438 612l-31 -30v-582h-254v582l-30 30l-439 -612h-307z" />
<glyph unicode="&#x417;" horiz-adv-x="1228" d="M82 227l174 166q31 -69 90 -116.5t123.5 -67t132.5 -19.5q129 0 195.5 59.5t66.5 143.5q0 209 -299 209h-123v229h123q104 0 166 46.5t62 128.5q0 75 -50 116t-145 41q-175 0 -274 -108l-140 182q91 81 192 120.5t228 39.5q206 0 327.5 -97.5t121.5 -259.5 q0 -91 -43 -167t-125 -121q122 -31 188 -127.5t66 -225.5q0 -193 -152 -311.5t-391 -118.5q-177 0 -308 67.5t-206 190.5z" />
<glyph unicode="&#x418;" horiz-adv-x="1515" d="M156 -27v1393h266v-917l754 948h184v-1397h-266v922l-754 -949h-184z" />
<glyph unicode="&#x419;" horiz-adv-x="1515" d="M156 -27v1393h266v-917l754 948h184v-1397h-266v922l-754 -949h-184zM389 1729l184 73q15 -40 42 -66.5t58 -36.5t49.5 -13t35.5 -3t35.5 3t49.5 13t57.5 36.5t41.5 66.5l184 -73q-41 -107 -135.5 -168.5t-232.5 -61.5t-233 61.5t-136 168.5z" />
<glyph unicode="&#x41a;" horiz-adv-x="1302" d="M156 0v1366h266v-578l502 578h336l-578 -631l608 -735h-352l-485 612l-31 -30v-582h-266z" />
<glyph unicode="&#x41b;" horiz-adv-x="1372" d="M20 0v229q40 -12 76 -12q74 0 123 49q25 25 40 57.5t20.5 83t6.5 80t1 97.5v782h930v-1366h-267v1137h-397v-607v-64t-2.5 -63.5t-7.5 -71.5t-15.5 -65.5t-26 -69.5t-39.5 -59.5t-56 -58.5q-106 -90 -273 -90q-58 0 -113 12z" />
<glyph unicode="&#x41c;" horiz-adv-x="1781" d="M86 0l254 1391h184l371 -893l387 893h184l230 -1391h-271l-122 842l-375 -860h-74l-358 860l-140 -842h-270z" />
<glyph unicode="&#x41d;" horiz-adv-x="1421" d="M156 0v1366h266v-528h577v528h267v-1366h-267v608h-577v-608h-266z" />
<glyph unicode="&#x41e;" horiz-adv-x="1638" d="M90 682q0 206 92 369t258.5 254.5t378.5 91.5t378.5 -91.5t258.5 -254.5t92 -369t-92 -368.5t-258.5 -253.5t-378.5 -91t-378.5 91t-258.5 253.5t-92 368.5zM365 682q0 -207 127 -339t327 -132t327.5 132t127.5 339t-128 340t-327 133t-326.5 -133t-127.5 -340z" />
<glyph unicode="&#x41f;" horiz-adv-x="1392" d="M156 0v1366h1081v-1366h-266v1137h-549v-1137h-266z" />
<glyph unicode="&#x420;" horiz-adv-x="1093" d="M156 0v1366h397q126 0 208 -21t152 -83q140 -124 140 -330q0 -27 -3.5 -57t-13.5 -75t-35 -91t-61 -82q-121 -121 -346 -121h-172v-506h-266zM422 735h108q36 0 57.5 1.5t56.5 11.5t61 30q73 58 73 160q0 99 -76 156q-61 43 -188 43h-92v-402z" />
<glyph unicode="&#x421;" horiz-adv-x="1236" d="M90 682q0 174 61 309t158 226q191 180 502 180q182 0 336 -84v-312q-44 50 -95.5 84t-99.5 47.5t-78.5 18t-56.5 4.5q-133 0 -237.5 -67t-159.5 -175t-55 -235q0 -110 40 -200.5t105.5 -147.5t147.5 -88t169 -31q193 0 320 149v-311q-153 -80 -338 -80q-168 0 -286 50 t-214 141q-115 111 -167 239t-52 283z" />
<glyph unicode="&#x422;" horiz-adv-x="905" d="M12 1137v229h881v-229h-307v-1137h-267v1137h-307z" />
<glyph unicode="&#x423;" horiz-adv-x="1249" d="M4 1366h311l347 -688l292 688h291l-633 -1366h-290l190 381z" />
<glyph unicode="&#x424;" horiz-adv-x="1699" d="M90 725q0 288 205 434q147 103 385 103h37v159h266v-159h37q238 0 385 -103q205 -146 205 -434t-205 -434q-147 -103 -385 -103h-37v-188h-266v188h-37q-238 0 -385 103q-205 146 -205 434zM365 725q0 -162 110 -250q46 -36 92.5 -46.5t108.5 -10.5h41v614h-41 q-124 0 -201 -57q-110 -83 -110 -250zM983 418h41q130 0 203 57q108 85 108 250q0 85 -29.5 149.5t-78.5 100.5q-77 57 -203 57h-41v-614z" />
<glyph unicode="&#x425;" horiz-adv-x="1310" d="M16 0l484 721l-408 645h320l239 -424l252 424h320l-420 -645l467 -721h-320l-299 500l-315 -500h-320z" />
<glyph unicode="&#x426;" horiz-adv-x="1413" d="M156 0v1366h266v-1137h541v1137h266v-1137h164v-536h-246v307h-991z" />
<glyph unicode="&#x427;" horiz-adv-x="1269" d="M102 946v420h267v-373q0 -41 2.5 -66.5t18 -61.5t46.5 -60q58 -45 195 -45q116 0 217 14v592h266v-1366h-266v545q-147 -15 -244 -15q-248 0 -364 88q-82 61 -110 144t-28 184z" />
<glyph unicode="&#x428;" horiz-adv-x="1986" d="M156 0v1366h266v-1137h438v1137h266v-1137h439v1137h266v-1366h-1675z" />
<glyph unicode="&#x429;" horiz-adv-x="2015" d="M156 0v1366h266v-1137h438v1137h266v-1137h439v1137h266v-1137h164v-536h-246v307h-1593z" />
<glyph unicode="&#x42a;" horiz-adv-x="1282" d="M12 1137v229h553v-535h213q215 0 336 -112q127 -117 127 -305q0 -137 -74 -246q-114 -168 -387 -168h-481v1137h-287zM565 229h156q19 0 35 1t49 5.5t57.5 17t50.5 31.5t40 52.5t14 77.5q0 36 -10.5 66.5t-36 59.5t-75.5 45.5t-120 16.5h-160v-373z" />
<glyph unicode="&#x42b;" horiz-adv-x="1638" d="M156 0v1366h266v-535h213q215 0 336 -112q127 -117 127 -305q0 -137 -74 -246q-114 -168 -387 -168h-481zM422 229h156q19 0 35 1t48.5 5.5t57.5 17t50.5 31.5t39.5 52.5t14 77.5q0 36 -10.5 66.5t-35.5 59.5t-75 45.5t-120 16.5h-160v-373zM1217 0v1366h266v-1366h-266z " />
<glyph unicode="&#x42c;" horiz-adv-x="1138" d="M156 0v1366h266v-535h213q215 0 336 -112q127 -117 127 -305q0 -137 -74 -246q-114 -168 -387 -168h-481zM422 229h156q19 0 35 1t48.5 5.5t57.5 17t50.5 31.5t39.5 52.5t14 77.5q0 36 -10.5 66.5t-35.5 59.5t-75 45.5t-120 16.5h-160v-373z" />
<glyph unicode="&#x42d;" horiz-adv-x="1251" d="M90 49v311q145 -149 361 -149q159 0 283.5 94.5t152.5 265.5h-613v230h609q-28 168 -149 261t-273 93q-219 0 -371 -154v312q162 84 356 84q321 0 510 -180q97 -94 151 -236.5t54 -298.5q0 -102 -21 -192.5t-56 -155t-64.5 -104t-61.5 -70.5q-191 -191 -509 -191 q-196 0 -359 80z" />
<glyph unicode="&#x42e;" horiz-adv-x="2101" d="M156 0v1366h266v-528h188q35 202 172 350q194 209 525 209q155 0 287 -54t223 -148t142.5 -226.5t51.5 -286.5t-51.5 -286t-143 -226t-223 -147.5t-286.5 -53.5q-308 0 -498 183q-189 184 -207 456h-180v-608h-266zM877 682q0 -210 119 -340.5t311 -130.5t311 130.5 t119 340.5q0 95 -25.5 174.5t-67.5 134t-98 92t-116.5 55t-122.5 17.5t-122.5 -17.5t-116.5 -55t-98 -92t-67.5 -134t-25.5 -174.5z" />
<glyph unicode="&#x42f;" d="M25 0l405 553q-82 13 -149 61t-110.5 133.5t-43.5 196.5q0 200 135 318q72 63 157 83.5t193 20.5h396v-1366h-267v528h-49l-348 -528h-319zM401 944q0 -43 12.5 -77t30 -55t45 -36.5t49.5 -22.5t51.5 -11t43 -4.5t31.5 -0.5h77v412h-82q-20 0 -37 -1.5t-51 -6.5 t-60 -18.5t-53 -34.5t-42 -58.5t-15 -85.5z" />
<glyph unicode="&#x430;" horiz-adv-x="1167" d="M74 444q0 131 54.5 238t156 170t229.5 63q193 0 285 -143v115h250v-887h-250v115q-100 -144 -273 -144q-200 0 -326 137t-126 336zM332 444q0 -107 70 -179t176 -72t175.5 72t69.5 179t-69.5 178.5t-175.5 71.5q-107 0 -176.5 -71.5t-69.5 -178.5z" />
<glyph unicode="&#x431;" horiz-adv-x="1179" d="M90 537q0 414 135 598q33 45 76 81t78.5 56.5t88 38t80 24t77.5 17.5q97 20 142 47.5t60 75.5h230q-11 -63 -35.5 -114.5t-53.5 -84t-67.5 -58.5t-68.5 -39t-66 -24q-45 -14 -115.5 -31t-103.5 -27t-75.5 -36t-74.5 -66q-66 -82 -75 -200h4q48 60 133.5 90t177.5 30 q205 0 332 -124q22 -21 42.5 -48.5t43.5 -70t37 -101.5t14 -125q0 -212 -150 -350q-136 -125 -352 -125q-225 0 -354 117q-52 47 -86.5 106t-49 123t-19.5 112.5t-5 107.5zM348 442q0 -106 70.5 -177.5t179.5 -71.5t179.5 71.5t70.5 177.5q0 108 -69.5 180t-180.5 72 t-180.5 -72t-69.5 -180z" />
<glyph unicode="&#x432;" horiz-adv-x="933" d="M119 0v887h391q42 0 67.5 -1.5t68.5 -14.5t75 -37q86 -66 86 -175q0 -58 -32 -107t-91 -75q67 -13 117 -57q67 -60 67 -166q0 -125 -94 -197q-77 -57 -199 -57h-456zM369 197h116q63 0 93 22q32 24 32 72q0 43 -32 63q-32 21 -86 21h-123v-178zM369 535h114q39 0 66 16 q33 20 33 61q0 43 -29 64q-20 14 -74 14h-110v-155z" />
<glyph unicode="&#x433;" horiz-adv-x="696" d="M119 0v887h565v-213h-315v-674h-250z" />
<glyph unicode="&#x434;" horiz-adv-x="1085" d="M8 213q54 3 94.5 35.5t63.5 77.5q35 74 35 227v334h737v-674h131v-471h-225v258h-611v-258h-225v471zM328 213h360v461h-262v-197q0 -181 -98 -264z" />
<glyph unicode="&#x435;" horiz-adv-x="1069" d="M74 442q0 214 135 349q126 124 334 124q226 0 346 -145q106 -127 106 -348v-21h-663q0 -91 43 -149q61 -84 178 -84q140 0 207 117l229 -37q-12 -29 -26 -55.5t-50 -70t-80.5 -74t-118.5 -54t-161 -23.5q-209 0 -340 125q-139 130 -139 346zM340 561h420q-14 86 -75 132 t-136 46q-74 0 -134.5 -46.5t-74.5 -131.5z" />
<glyph unicode="&#x436;" horiz-adv-x="1368" d="M-4 0l356 483l-338 404h291l266 -344v344h226v-344l266 344h291l-338 -404l356 -483h-303l-240 348l-32 -37v-311h-226v311l-32 37l-240 -348h-303z" />
<glyph unicode="&#x437;" horiz-adv-x="901" d="M53 119l123 151q50 -47 115.5 -70.5t122.5 -23.5q85 0 120 30.5t35 69.5q0 50 -47 74q-35 17 -106 17h-105v180h101q67 0 98 20q31 21 31 62q0 39 -32 64.5t-103 25.5q-115 0 -197 -70l-115 156q137 110 336 110q149 0 236 -59q100 -69 100 -188q0 -122 -123 -191 q67 -16 117 -59q67 -60 67 -164q0 -129 -102 -205q-53 -40 -132.5 -59t-158.5 -19q-238 0 -381 148z" />
<glyph unicode="&#x438;" horiz-adv-x="1146" d="M119 0v887h250v-547l409 547h250v-887h-250v547l-409 -547h-250z" />
<glyph unicode="&#x439;" horiz-adv-x="1146" d="M119 0v887h250v-547l409 547h250v-887h-250v547l-409 -547h-250zM238 1253l163 78q12 -56 60 -92.5t112 -36.5q60 0 109 33.5t63 95.5l164 -78q-21 -60 -61 -104t-89 -66t-94.5 -31.5t-91.5 -9.5t-91 9.5t-94 31.5t-89 66t-61 104z" />
<glyph unicode="&#x43a;" horiz-adv-x="1024" d="M119 0v887h250v-344l331 344h312l-402 -395l422 -492h-319l-307 367l-37 -37v-330h-250z" />
<glyph unicode="&#x43b;" horiz-adv-x="1024" d="M16 0v213q24 -4 39 -4q69 0 103 43q30 37 30 113v522h717v-887h-250v674h-241v-326q0 -171 -84 -262q-10 -11 -26 -23.5t-45.5 -30.5t-74 -29t-94.5 -11q-41 0 -74 8z" />
<glyph unicode="&#x43c;" horiz-adv-x="1228" d="M25 0l161 911h185l243 -534l244 534h184l162 -911h-250l-73 481l-230 -499h-73l-230 499l-74 -481h-249z" />
<glyph unicode="&#x43d;" horiz-adv-x="1085" d="M119 0v887h250v-314h348v314h250v-887h-250v360h-348v-360h-250z" />
<glyph unicode="&#x43e;" d="M74 442q0 105 40.5 196t108.5 153q135 124 359 124q223 0 358 -124q69 -62 109.5 -153t40.5 -196q0 -104 -40.5 -194t-109.5 -152q-136 -125 -358 -125q-223 0 -359 125q-68 62 -108.5 152t-40.5 194zM332 442q0 -103 71.5 -176t178.5 -73t178 73t71 176 q0 105 -71.5 178.5t-177.5 73.5t-178 -73.5t-72 -178.5z" />
<glyph unicode="&#x43f;" horiz-adv-x="1077" d="M119 0v887h839v-887h-249v674h-340v-674h-250z" />
<glyph unicode="&#x440;" horiz-adv-x="1167" d="M119 -475v1362h250v-115q102 143 288 143q194 0 315.5 -133.5t121.5 -337.5t-124 -338.5t-319 -134.5q-178 0 -282 144v-590h-250zM344 444q0 -107 70 -179t176 -72t176 72t70 179t-69.5 178.5t-176.5 71.5t-176.5 -71.5t-69.5 -178.5z" />
<glyph unicode="&#x441;" horiz-adv-x="856" d="M74 440q0 113 41 205.5t112 155.5q129 114 320 114q130 0 239 -53v-246q-84 78 -204 78q-118 0 -184 -73t-66 -177q0 -109 73 -180t185 -71q110 0 196 77v-243q-110 -56 -229 -56q-101 0 -190.5 35t-151.5 94q-141 131 -141 340z" />
<glyph unicode="&#x442;" horiz-adv-x="765" d="M12 674v213h742v-213h-246v-674h-250v674h-246z" />
<glyph unicode="&#x443;" horiz-adv-x="1101" d="M4 887h291l274 -504l246 504h283l-715 -1362h-283l326 608z" />
<glyph unicode="&#x444;" horiz-adv-x="1413" d="M74 444q0 135 51.5 226t124.5 143q121 86 311 86h21v467h249v-467h21q190 0 311 -86q73 -52 124.5 -143t51.5 -226t-51.5 -226.5t-124.5 -141.5q-62 -44 -145 -66t-166 -22h-21v-463h-249v463h-21q-83 0 -166 22t-145 66q-73 50 -124.5 141.5t-51.5 226.5zM332 444 q0 -132 90 -192q61 -43 160 -43v469q-93 4 -158 -41q-92 -63 -92 -193zM831 209q99 0 160 43q90 60 90 192q0 130 -92 193q-65 45 -158 41v-469z" />
<glyph unicode="&#x445;" horiz-adv-x="1159" d="M4 0l422 483l-340 404h315l181 -230l184 230h315l-346 -404l420 -483h-319l-254 309l-258 -309h-320z" />
<glyph unicode="&#x446;" horiz-adv-x="1110" d="M119 0v887h250v-674h331v674h250v-674h144v-471h-226v258h-749z" />
<glyph unicode="&#x447;" horiz-adv-x="991" d="M86 573v314h250v-262q0 -68 31 -97q34 -32 127 -32q62 0 129 12v379h249v-887h-249v303q-105 -20 -209 -20q-162 0 -248 82q-49 46 -64.5 96t-15.5 112z" />
<glyph unicode="&#x448;" horiz-adv-x="1560" d="M119 0v887h250v-674h286v674h250v-674h287v674h250v-887h-1323z" />
<glyph unicode="&#x449;" horiz-adv-x="1601" d="M119 0v887h250v-674h286v674h250v-674h287v674h250v-674h143v-471h-225v258h-1241z" />
<glyph unicode="&#x44a;" horiz-adv-x="1032" d="M12 674v213h467v-316h195q156 0 237 -90q68 -71 68 -190q0 -144 -94 -225q-76 -66 -199 -66h-457v674h-217zM479 197h117q62 0 92 22q33 25 33 72q0 42 -33 63q-32 21 -86 21h-123v-178z" />
<glyph unicode="&#x44b;" horiz-adv-x="1331" d="M119 0v887h250v-316h194q157 0 238 -90q67 -70 67 -190q0 -144 -94 -225q-76 -66 -199 -66h-456zM369 197h116q63 0 93 22q32 24 32 72q0 43 -32 63q-32 21 -86 21h-123v-178zM963 0v887h249v-887h-249z" />
<glyph unicode="&#x44c;" horiz-adv-x="921" d="M119 0v887h250v-316h194q157 0 238 -90q67 -70 67 -190q0 -144 -94 -225q-76 -66 -199 -66h-456zM369 197h116q63 0 93 22q32 24 32 72q0 43 -32 63q-32 21 -86 21h-123v-178z" />
<glyph unicode="&#x44d;" horiz-adv-x="888" d="M70 18v242q106 -86 258 -86q108 0 164 49q56 50 59 135h-367v181h367q-12 81 -68 125q-60 55 -157 55q-141 0 -252 -76v217q133 55 270 55q221 0 346 -133q125 -130 125 -340q0 -110 -36 -199.5t-95 -146.5q-59 -59 -148 -93t-192 -34q-160 0 -274 49z" />
<glyph unicode="&#x44e;" horiz-adv-x="1536" d="M119 0v887h250v-334h120q22 137 127 238q130 124 347 124t352 -124q67 -60 107 -152.5t40 -196.5q0 -102 -40 -193t-107 -153q-135 -125 -352 -125q-215 0 -347 125q-105 101 -127 244h-120v-340h-250zM721 442q0 -104 69 -176.5t173 -72.5t172.5 72.5t68.5 176.5 q0 107 -68 179.5t-173 72.5t-173.5 -72.5t-68.5 -179.5z" />
<glyph unicode="&#x44f;" horiz-adv-x="942" d="M41 0l262 332q-86 12 -143 69q-70 70 -70 189q0 137 107 223q41 33 93.5 50t89.5 20.5t91 3.5h352v-887h-250v311h-28l-217 -311h-287zM348 588q0 -50 33 -74q30 -22 84 -22h108v198h-108q-21 0 -30 -0.5t-25 -6t-29 -17.5q-33 -30 -33 -78z" />
<glyph unicode="&#x451;" horiz-adv-x="1069" d="M74 442q0 214 135 349q126 124 334 124q226 0 346 -145q106 -127 106 -348v-21h-663q0 -91 43 -149q61 -84 178 -84q140 0 207 117l229 -37q-12 -29 -26 -55.5t-50 -70t-80.5 -74t-118.5 -54t-161 -23.5q-209 0 -340 125q-139 130 -139 346zM184 1200q0 60 44 104t104 44 t103.5 -44t43.5 -104t-43.5 -103.5t-103.5 -43.5t-104 43.5t-44 103.5zM340 561h420q-14 86 -75 132t-136 46q-74 0 -134.5 -46.5t-74.5 -131.5zM610 1200q0 60 44 104t104 44t103.5 -44t43.5 -104t-43.5 -103.5t-103.5 -43.5t-104 43.5t-44 103.5z" />
<glyph unicode="&#x452;" horiz-adv-x="1114" d="M-20 1165v160h159v209h250v-209h410v-160h-410v-393q102 143 275 143q71 0 142.5 -25t119.5 -83q42 -52 55.5 -112t13.5 -138v-756q0 -167 -100 -239q-80 -56 -203 -56q-83 0 -155 19v221q47 -18 96 -18q66 0 94 45q18 31 18 123v587q0 125 -47 174q-43 45 -116 45 q-102 0 -154 -77q-39 -60 -39 -172v-453h-250v1165h-159z" />
<glyph unicode="&#x453;" horiz-adv-x="696" d="M119 0v887h565v-213h-315v-674h-250zM287 1126l241 308l181 -115l-308 -275z" />
<glyph unicode="&#x454;" horiz-adv-x="888" d="M74 436q0 207 137 340q139 139 364 139q142 0 240 -61v-217q-107 82 -231 82q-98 0 -168 -60q-64 -52 -84 -127h393v-180h-393q4 -44 27 -79.5t55 -55.5q61 -41 188 -41q133 0 217 78v-242q-95 -41 -237 -41q-100 0 -199 30t-166 89q-68 61 -105.5 155t-37.5 191z" />
<glyph unicode="&#x455;" horiz-adv-x="827" d="M61 119l132 151q39 -45 91 -73.5t105 -28.5q54 0 88.5 25.5t34.5 70.5q0 62 -78 90l-57 21q-42 15 -67.5 26t-62 32.5t-61.5 47.5q-67 70 -67 170q0 61 25.5 114t66.5 87q80 63 231 63q159 0 283 -94l-123 -145q-63 59 -145 59q-44 0 -70.5 -19.5t-26.5 -51.5 q0 -54 80 -80l60 -19q51 -17 81.5 -28.5t75.5 -39t68 -59.5q45 -62 45 -147q0 -135 -98 -225q-104 -95 -266 -95q-207 0 -345 148z" />
<glyph unicode="&#x456;" horiz-adv-x="487" d="M94 1262q0 61 44 105t106 44t105.5 -43.5t43.5 -105.5t-44 -106t-105 -44q-62 0 -106 44t-44 106zM119 0v887h250v-887h-250z" />
<glyph unicode="&#x457;" horiz-adv-x="487" d="M-2 1200q0 46 32.5 78.5t78.5 32.5t78 -32.5t32 -78.5t-32 -78t-78 -32t-78.5 32t-32.5 78zM119 0v887h250v-887h-250zM268 1200q0 46 32.5 78.5t78.5 32.5t78 -32.5t32 -78.5t-32 -78t-78 -32t-78.5 32t-32.5 78z" />
<glyph unicode="&#x458;" horiz-adv-x="487" d="M94 1262q0 61 44 105t106 44t105.5 -43.5t43.5 -105.5t-44 -106t-105 -44q-62 0 -106 44t-44 106zM119 -475v1362h250v-1362h-250z" />
<glyph unicode="&#x459;" horiz-adv-x="1458" d="M16 0v213q24 -4 39 -4q69 0 103 43q30 37 30 113v522h717v-316h195q155 0 237 -90q68 -71 68 -190q0 -144 -94 -225q-76 -66 -199 -66h-457v674h-241v-326q0 -171 -84 -262q-10 -11 -26 -23.5t-45.5 -30.5t-74 -29t-94.5 -11q-41 0 -74 8zM905 197h117q62 0 92 22 q33 25 33 72q0 42 -33 63q-32 21 -86 21h-123v-178z" />
<glyph unicode="&#x45a;" horiz-adv-x="1519" d="M119 0v887h250v-314h348v314h250v-316h194q156 0 238 -90q67 -70 67 -190q0 -144 -94 -225q-76 -66 -198 -66h-457v360h-348v-360h-250zM967 197h116q63 0 93 22q32 24 32 72q0 43 -32 63q-32 21 -86 21h-123v-178z" />
<glyph unicode="&#x45b;" horiz-adv-x="1114" d="M-20 1165v160h159v209h250v-209h410v-160h-410v-393q102 143 275 143q71 0 142.5 -25t119.5 -83q42 -52 55.5 -112t13.5 -138v-557h-250v483q0 125 -47 174q-43 45 -116 45q-102 0 -154 -77q-39 -60 -39 -172v-453h-250v1165h-159z" />
<glyph unicode="&#x45c;" horiz-adv-x="1024" d="M119 0v887h250v-344l331 344h312l-402 -395l422 -492h-319l-307 367l-37 -37v-330h-250zM410 1126l241 308l180 -115l-307 -275z" />
<glyph unicode="&#x45e;" horiz-adv-x="1101" d="M4 887h291l274 -504l246 504h283l-715 -1362h-283l326 608zM225 1253l164 78q12 -56 60 -92.5t112 -36.5q60 0 109 33.5t63 95.5l164 -78q-21 -60 -61 -104t-89 -66t-94.5 -31.5t-91.5 -9.5t-91.5 9.5t-94.5 31.5t-89 66t-61 104z" />
<glyph unicode="&#x45f;" horiz-adv-x="1069" d="M119 0v887h250v-674h331v674h250v-887h-303v-328h-225v328h-303z" />
<glyph unicode="&#x490;" horiz-adv-x="974" d="M156 0v1366h561v307h246v-536h-541v-1137h-266z" />
<glyph unicode="&#x491;" horiz-adv-x="778" d="M119 0v887h422v258h225v-471h-397v-674h-250z" />
<glyph unicode="&#x2000;" horiz-adv-x="942" />
<glyph unicode="&#x2001;" horiz-adv-x="1884" />
<glyph unicode="&#x2002;" horiz-adv-x="942" />
<glyph unicode="&#x2003;" horiz-adv-x="1884" />
<glyph unicode="&#x2004;" horiz-adv-x="628" />
<glyph unicode="&#x2005;" horiz-adv-x="471" />
<glyph unicode="&#x2006;" horiz-adv-x="314" />
<glyph unicode="&#x2007;" horiz-adv-x="314" />
<glyph unicode="&#x2008;" horiz-adv-x="235" />
<glyph unicode="&#x2009;" horiz-adv-x="376" />
<glyph unicode="&#x200a;" horiz-adv-x="104" />
<glyph unicode="&#x2010;" horiz-adv-x="696" d="M82 356v230h532v-230h-532z" />
<glyph unicode="&#x2011;" horiz-adv-x="696" d="M82 356v230h532v-230h-532z" />
<glyph unicode="&#x2012;" horiz-adv-x="696" d="M82 356v230h532v-230h-532z" />
<glyph unicode="&#x2013;" horiz-adv-x="1228" d="M102 365v213h1024v-213h-1024z" />
<glyph unicode="&#x2014;" horiz-adv-x="1638" d="M102 365v213h1434v-213h-1434z" />
<glyph unicode="&#x2018;" horiz-adv-x="622" d="M86 848l289 543l157 -19l-217 -551z" />
<glyph unicode="&#x2019;" horiz-adv-x="757" d="M86 842l217 551l229 -27l-288 -543z" />
<glyph unicode="&#x201a;" horiz-adv-x="757" d="M86 -268l217 551l229 -27l-288 -543z" />
<glyph unicode="&#x201c;" horiz-adv-x="1007" d="M86 848l289 543l157 -19l-217 -551zM471 848l289 543l158 -19l-218 -551z" />
<glyph unicode="&#x201d;" horiz-adv-x="1167" d="M86 842l217 551l229 -27l-288 -543zM471 842l217 551l230 -27l-289 -543z" />
<glyph unicode="&#x201e;" horiz-adv-x="1167" d="M86 -268l217 551l229 -27l-288 -543zM471 -268l217 551l230 -27l-289 -543z" />
<glyph unicode="&#x2020;" d="M139 995v213h324v326h237v-326h324v-213h-324v-1323h-237v1323h-324z" />
<glyph unicode="&#x2021;" d="M139 344v213h324v438h-324v213h324v326h237v-326h324v-213h-324v-438h324v-213h-324v-672h-237v672h-324z" />
<glyph unicode="&#x2022;" horiz-adv-x="1368" d="M397 696q0 118 84.5 202.5t202.5 84.5t202.5 -84.5t84.5 -202.5t-84 -202t-203 -84t-203 84t-84 202z" />
<glyph unicode="&#x2026;" horiz-adv-x="1732" d="M129 133q0 67 46.5 113.5t113.5 46.5t113.5 -46.5t46.5 -113.5t-46.5 -113.5t-113.5 -46.5t-113.5 46.5t-46.5 113.5zM707 133q0 68 46 114t113 46q68 0 114 -46.5t46 -113.5t-46 -113.5t-114 -46.5q-67 0 -113 46t-46 114zM1284 133q0 67 46 113.5t114 46.5t114 -46.5 t46 -113.5t-46 -113.5t-114 -46.5t-114 46.5t-46 113.5z" />
<glyph unicode="&#x202f;" horiz-adv-x="376" />
<glyph unicode="&#x2030;" horiz-adv-x="2396" d="M61 1059q0 142 94 232.5t251 90.5t250.5 -90.5t93.5 -232.5t-93.5 -233t-250.5 -91t-251 91t-94 233zM233 1059q0 -76 49 -126t124 -50t123.5 49.5t48.5 126.5t-48.5 126.5t-123.5 49.5t-124 -50t-49 -126zM332 6l813 1405l108 -61l-813 -1407zM836 303q0 142 93.5 233 t250.5 91t250.5 -91t93.5 -233t-93.5 -232.5t-250.5 -90.5t-250.5 90.5t-93.5 232.5zM1008 303q0 -77 48.5 -126.5t123.5 -49.5t123.5 49.5t48.5 126.5t-48.5 126.5t-123.5 49.5t-123.5 -49.5t-48.5 -126.5zM1647 303q0 142 93.5 233t250.5 91t250.5 -91t93.5 -233 t-93.5 -232.5t-250.5 -90.5t-250.5 90.5t-93.5 232.5zM1819 303q0 -77 48.5 -126.5t123.5 -49.5t123.5 49.5t48.5 126.5t-48.5 126.5t-123.5 49.5t-123.5 -49.5t-48.5 -126.5z" />
<glyph unicode="&#x2039;" horiz-adv-x="651" d="M82 449l324 438l143 -103l-250 -335l250 -336l-143 -103z" />
<glyph unicode="&#x203a;" horiz-adv-x="651" d="M102 113l250 336l-250 335l144 103l323 -438l-323 -439z" />
<glyph unicode="&#x205f;" horiz-adv-x="471" />
<glyph unicode="&#x20ac;" d="M39 444l67 185h80q-2 16 -2 61q0 39 2 55h-147l67 185h99q40 220 172.5 343.5t367.5 123.5q108 0 197.5 -22.5t130.5 -49.5v-242q-104 91 -293 91q-271 0 -319 -244h545l-66 -185h-506q0 -6 -1 -24t-1 -29q0 -12 1 -34t1 -29h461l-66 -185h-366q45 -251 319 -251 q187 0 291 92v-246q-37 -25 -123 -46.5t-205 -21.5q-222 0 -360 117t-178 356h-168z" />
<glyph unicode="&#x2116;" horiz-adv-x="2211" d="M156 0v1366h266l627 -920v920h266v-1366h-266l-627 920v-920h-266zM1438 1042q0 142 93.5 233t250.5 91t250.5 -91t93.5 -233t-93.5 -232.5t-250.5 -90.5t-250.5 90.5t-93.5 232.5zM1479 403v177h606v-177h-606zM1610 1042q0 -77 48.5 -126.5t123.5 -49.5t123.5 49.5 t48.5 126.5t-48.5 127t-123.5 50t-123.5 -50t-48.5 -127z" />
<glyph unicode="&#x2122;" horiz-adv-x="1474" d="M-4 1210v156h510v-156h-168v-622h-174v622h-168zM532 588l140 792h127l190 -473l201 473h127l125 -792h-174l-60 428l-184 -438h-70l-180 438l-67 -428h-175z" />
<glyph unicode="&#xe000;" horiz-adv-x="890" d="M0 0v891h891v-891h-891z" />
</font>
</defs>
</svg>
